<svg viewBox="0 0 600 375" xmlns="http://www.w3.org/2000/svg"
    xmlns:xlink="http://www.w3.org/1999/xlink">
    <symbol id="prefix__a" overflow="visible">
        <path
            d="M22.125-137.781H59.5c10.05 0 16.785 2.465 20.203 7.39 3.426 4.918 3.86 12.934 1.297 24.047l-1.453 6.094c-2.992 13.156-9.512 21.016-19.563 23.578 5.446 1.5 8.707 4.98 9.782 10.438 1.07 5.449.593 12.664-1.438 21.64-3.43 14.657-8.187 25.758-14.281 33.297C47.953-3.766 39.187 0 27.75 0H-9.625zM42.813-85.97c2.351 0 4.144-.879 5.374-2.64 1.227-1.77 2.22-4.258 2.97-7.47l3.218-13.796c1.063-4.488-.387-6.734-4.344-6.734h-5.765l-7.063 30.64zm-17.157 61.75c7.164 0 11.5-3.422 13-10.265l4-17.157c.969-4.175 1.078-7.332.328-9.468-.75-2.133-2.68-3.203-5.78-3.203h-5.126l-9.14 39.937zm0 0" />
    </symbol>
    <symbol id="prefix__b" overflow="visible">
        <path d="M-10.906 0l31.75-137.781h26.625L15.719 0zm0 0" />
    </symbol>
    <symbol id="prefix__c" overflow="visible">
        <path d="M-9.625 0l31.75-137.781h27.594L23.406-23.421h28.39L46.345 0zm0 0" />
    </symbol>
    <symbol id="prefix__d" overflow="visible">
        <path
            d="M22.125-137.781h38.016c9.832 0 16.593 2.73 20.28 8.187 3.696 5.45 4.368 13.524 2.016 24.219L67.844-40.906c-3.106 13.586-7.84 23.797-14.203 30.64C47.285-3.422 38.547 0 27.42 0H-9.624zm6.422 113.406c5.02 0 8.117-2.457 9.297-7.375l16.36-71.063c.75-3.101 1.038-5.425.874-6.968-.156-1.551-.797-2.594-1.922-3.125-1.117-.54-3.011-.813-5.687-.813h-3.047L23.734-24.375zm0 0" />
    </symbol>
    <symbol id="prefix__e" overflow="visible">
        <path
            d="M22.125 1.281c-11.336 0-19.008-3.207-23.016-9.625-4.007-6.414-4.57-15.93-1.687-28.547l23.265-100.89H47.47L24.375-38.016c-.96 4.387-1.309 7.809-1.047 10.266.27 2.46 1.797 3.688 4.578 3.688s4.89-1.204 6.328-3.61c1.446-2.406 2.649-5.851 3.61-10.344l23.093-99.765h26.797L64.47-36.891c-2.887 12.618-7.836 22.133-14.844 28.547-7 6.418-16.168 9.625-27.5 9.625zm0 0" />
    </symbol>
    <symbol id="prefix__f" overflow="visible">
        <path
            d="M-9.625 0l31.75-137.781h28.39L47.954-71.86l15.234-65.922h26.626L58.063 0H31.108l2.094-68.969L17.313 0zm0 0" />
    </symbol>
    <symbol id="prefix__g" overflow="visible">
        <path
            d="M18.438 1.281c-9.938 0-16.54-3.5-19.797-10.5-3.27-7.008-3.243-17.625.078-31.843l13.625-59.344c3-12.719 8.078-22.336 15.234-28.86 7.164-6.53 16.363-9.797 27.594-9.797 9.082 0 15.707 1.82 19.875 5.454 4.176 3.636 6.426 8.933 6.75 15.89.32 6.95-.746 15.875-3.203 26.781H51.64l2.89-12.359c.75-3.312.88-5.875.39-7.687-.48-1.82-1.898-2.735-4.25-2.735-5.241 0-8.655 3.422-10.25 10.266L25.017-36.734c-.961 4.18-1.172 7.336-.641 9.468.531 2.137 2.133 3.203 4.813 3.203 2.675 0 4.816-1.066 6.421-3.203 1.602-2.132 2.883-5.289 3.844-9.468l4.484-19.72h-7.374l5.453-23.733h33.687L57.25 0H46.187L44.11-11.547C37.266-2.992 28.707 1.281 18.437 1.281zm0 0" />
    </symbol>
    <symbol id="prefix__h" overflow="visible">
        <path
            d="M22.766 1.281c-12.512 0-20.825-3.097-24.938-9.297-4.113-6.207-4.566-16.207-1.36-30l3.048-13.468h27.109l-4.016 17.156c-1.605 6.844-.214 10.266 4.172 10.266 2.457 0 4.352-.72 5.688-2.157 1.343-1.445 2.39-3.879 3.14-7.297 1.063-4.5 1.38-8.218.953-11.156-.43-2.937-1.23-5.394-2.406-7.375-1.18-1.976-3.422-5.05-6.734-9.219l-9.14-11.875c-7.063-8.976-9.36-18.921-6.891-29.828 2.664-11.758 7.421-20.71 14.265-26.86 6.844-6.155 15.453-9.233 25.828-9.233 12.407 0 20.582 3.292 24.532 9.875 3.957 6.574 4.28 16.867.968 30.875H48.922l2.078-9.47c.426-1.82.266-3.265-.484-4.327-.75-1.07-2.032-1.61-3.844-1.61-2.137 0-3.902.59-5.297 1.766-1.387 1.18-2.293 2.781-2.719 4.812-1.074 4.493.422 9.141 4.485 13.954l12.515 15.39c2.883 3.637 5.18 7.09 6.89 10.36 1.708 3.261 2.802 7.109 3.282 11.546.488 4.438.035 9.703-1.36 15.797-3.21 13.574-8.1 23.867-14.671 30.875-6.574 7-15.586 10.5-27.031 10.5zm0 0" />
    </symbol>
    <symbol id="prefix__i" overflow="visible">
        <path
            d="M22.125-137.781h42.344c6.738 0 11.601 1.527 14.594 4.578 3 3.043 4.5 7.32 4.5 12.828 0 5.512-.965 12.543-2.891 21.094-1.813 7.804-4.246 13.898-7.297 18.281-3.055 4.387-7.305 7.434-12.75 9.14 3.957.856 6.492 2.946 7.61 6.266 1.124 3.313 1.046 7.805-.235 13.469L55.656 0H28.703l12.36-53.89c.957-3.852.796-6.313-.485-7.376-1.281-1.07-3.902-1.609-7.86-1.609L18.282 0H-9.625zm22.938 51.015c3.851 0 6.742-4.171 8.671-12.515.852-3.633 1.305-6.36 1.36-8.172.05-1.82-.274-3.078-.969-3.766-.7-.695-1.852-1.047-3.453-1.047h-6.406l-5.782 25.5zm0 0" />
    </symbol>
    <symbol id="prefix__j" overflow="visible">
        <path
            d="M-13.313 0L31.75-137.781h46.672L59.828 0H33.672l3.219-22.297H20.203L13.47 0zm40.735-44.266h12.515l9.938-70.093h-1.281zm0 0" />
    </symbol>
    <g fill="#ffffff">
        <use x="18.188" xlink:href="#prefix__a" y="174" />
        <use x="95.016" xlink:href="#prefix__b" y="174" />
        <use x="131.426" xlink:href="#prefix__c" y="174" />
        <use x="195.103" xlink:href="#prefix__d" y="174" />
        <use x="274.177" xlink:href="#prefix__e" y="174" />
        <use x="350.204" xlink:href="#prefix__f" y="174" />
        <use x="430.081" xlink:href="#prefix__g" y="174" />
        <use x="507.872" xlink:href="#prefix__h" y="174" />
        <use x="76.57" xlink:href="#prefix__e" y="330.75" />
        <use x="152.597" xlink:href="#prefix__i" y="330.75" />
        <use x="229.105" xlink:href="#prefix__c" y="330.75" />
        <use x="292.782" xlink:href="#prefix__j" y="330.75" />
        <use x="370.573" xlink:href="#prefix__e" y="330.75" />
        <use x="446.6" xlink:href="#prefix__a" y="330.75" />
    </g>
</svg>